<?xml version="1.0" encoding="utf-8"?>
<!-- Generator: Adobe Illustrator 25.4.8, SVG Export Plug-In . SVG Version: 6.00 Build 0)  -->
<svg version="1.1" xmlns="http://www.w3.org/2000/svg" xmlns:xlink="http://www.w3.org/1999/xlink" x="0px" y="0px"
	 viewBox="0 0 611.75 517.04" style="enable-background:new 0 0 611.75 517.04;" xml:space="preserve">
<g id="Background">
</g>
<g id="Artwork">
	<g>
		<g>
			<g>
				<g>
					<path d="M349.17,235.64l-2.39-2.39l36.91-36.91c2.11-2.11,3.9-6.43,3.9-9.42v-74.96h3.38v74.96c0,3.88-2.15,9.06-4.89,11.81
						L349.17,235.64z"/>
				</g>
				<g>
					<g>
						<path d="M353.62,239.54c-2.97,2.97-7.78,2.97-10.74,0s-2.97-7.78,0-10.74c2.97-2.97,7.78-2.97,10.74,0
							C356.58,231.77,356.58,236.58,353.62,239.54z"/>
					</g>
				</g>
				<g>
					<g>
						<path d="M406.31,112.57c0-9.4-7.63-17.03-17.03-17.03c-9.4,0-17.03,7.63-17.03,17.03c0,9.4,7.63,17.03,17.03,17.03
							C398.69,129.6,406.31,121.97,406.31,112.57z"/>
					</g>
				</g>
			</g>
			<g>
				<g>
					<path d="M411.42,206.12l-2.39-2.39l16.44-16.43c2.74-2.74,7.93-4.89,11.81-4.89h76.45c2.99,0,7.3-1.79,9.42-3.9l12-12
						c2.11-2.11,3.9-6.43,3.9-9.42v-19.46h3.38v19.46c0,3.88-2.15,9.06-4.89,11.81l-12,12c-2.74,2.74-7.93,4.89-11.81,4.89h-76.45
						c-2.99,0-7.3,1.79-9.42,3.9L411.42,206.12z"/>
				</g>
				<g>
					<g>
						<path d="M418.03,223.05c-6.21,6.21-16.27,6.21-22.48,0c-6.21-6.21-6.21-16.27,0-22.48c6.21-6.21,16.27-6.21,22.48,0
							C424.24,206.78,424.24,216.84,418.03,223.05z"/>
					</g>
				</g>
				<g>
					<g>
						<path d="M558.14,130.99c0-9.61-7.79-17.41-17.41-17.41c-9.61,0-17.41,7.79-17.41,17.41c0,9.61,7.79,17.41,17.41,17.41
							C550.34,148.39,558.14,140.6,558.14,130.99z"/>
					</g>
				</g>
			</g>
			<g>
				<g>
					<path d="M357.98,269.74h-21.93v-3.38h21.93c2.99,0,7.3-1.79,9.42-3.9l11.59-11.59l2.39,2.39l-11.59,11.59
						C367.04,267.59,361.85,269.74,357.98,269.74z"/>
				</g>
				<g>
					<g>
						<path d="M374.54,246.96c2.97-2.97,7.78-2.97,10.74,0c2.97,2.97,2.97,7.78,0,10.74c-2.97,2.97-7.78,2.97-10.74,0
							C371.57,254.73,371.57,249.92,374.54,246.96z"/>
					</g>
				</g>
				<g>
					<g>
						<ellipse transform="matrix(0.9732 -0.2298 0.2298 0.9732 -52.5791 84.5173)" cx="336.65" cy="268.05" rx="12.15" ry="12.15"/>
					</g>
				</g>
			</g>
			<g>
				<g>
					<path d="M352.78,118.82l-21.24-21.24c-2.11-2.11-6.43-3.9-9.42-3.9H207.71c-3.88,0-9.06-2.15-11.81-4.89l-22.96-22.96
						c-2.08-2.08-3.88-5.64-4.59-9.06l3.31-0.68c0.57,2.74,2.07,5.76,3.67,7.36L198.3,86.4c2.11,2.11,6.43,3.9,9.42,3.9h114.41
						c3.88,0,9.06,2.15,11.81,4.89l21.24,21.24L352.78,118.82z"/>
				</g>
				<g>
					<g>
						<path d="M359.08,111.98c2.97,2.97,2.97,7.78,0,10.74c-2.97,2.97-7.78,2.97-10.74,0c-2.97-2.97-2.97-7.78,0-10.74
							C351.3,109.02,356.11,109.02,359.08,111.98z"/>
					</g>
				</g>
				<g>
					<g>
						<path d="M188.13,56.41c-0.34-9.92-8.66-17.7-18.58-17.36c-9.92,0.34-17.7,8.66-17.36,18.58c0.34,9.92,8.66,17.7,18.58,17.36
							C180.7,74.66,188.47,66.34,188.13,56.41z"/>
					</g>
				</g>
			</g>
			<g>
				<g>
					<path d="M418.13,149.81l-2.39-2.39l12.86-12.86c2.11-2.11,3.9-6.43,3.9-9.42V82.77h3.38v42.37c0,3.88-2.15,9.06-4.89,11.81
						L418.13,149.81z"/>
				</g>
				<g>
					<g>
						<path d="M422.58,153.72c-2.97,2.97-7.78,2.97-10.74,0c-2.97-2.97-2.97-7.78,0-10.74c2.97-2.97,7.78-2.97,10.74,0
							C425.54,145.94,425.54,150.75,422.58,153.72z"/>
					</g>
				</g>
				<g>
					<g>
						<path d="M446.34,83.38c0-6.71-5.44-12.15-12.15-12.15s-12.15,5.44-12.15,12.15c0,6.71,5.44,12.15,12.15,12.15
							S446.34,90.09,446.34,83.38z"/>
					</g>
				</g>
			</g>
			<g>
				<g>
					<path d="M511.58,279.43l-19.57-19.57c-2.11-2.11-6.43-3.9-9.42-3.9h-42.76v-3.38h42.76c3.88,0,9.06,2.15,11.81,4.89
						l19.57,19.57L511.58,279.43z"/>
				</g>
				<g>
					<g>
						<ellipse transform="matrix(0.7071 -0.7071 0.7071 0.7071 -50.8546 385.7521)" cx="440.22" cy="254.26" rx="7.6" ry="7.6"/>
					</g>
				</g>
				<g>
					<g>
						<path d="M503.76,286.4c4.75,4.75,12.44,4.75,17.19,0c4.75-4.75,4.75-12.44,0-17.19c-4.75-4.75-12.44-4.75-17.19,0
							C499.01,273.96,499.01,281.65,503.76,286.4z"/>
					</g>
				</g>
			</g>
			<g>
				<g>
					<path d="M231.23,301.99h-3.38v-19.08c0-3.88,2.15-9.06,4.89-11.81l24.3-24.3c2.74-2.74,7.93-4.89,11.81-4.89h38.69v3.38h-38.69
						c-2.99,0-7.3,1.79-9.42,3.9l-24.3,24.3c-2.11,2.11-3.9,6.43-3.9,9.42V301.99z"/>
				</g>
				<g>
					<g>
						<ellipse transform="matrix(0.9239 -0.3827 0.3827 0.9239 -69.8423 136.0837)" cx="307.15" cy="243.6" rx="7.6" ry="7.6"/>
					</g>
				</g>
				<g>
					<g>
						<path d="M217.38,301.38c0,6.71,5.44,12.15,12.15,12.15c6.71,0,12.15-5.44,12.15-12.15c0-6.71-5.44-12.15-12.15-12.15
							C222.82,289.22,217.38,294.67,217.38,301.38z"/>
					</g>
				</g>
			</g>
			<g>
				<g>
					<path d="M267.78,153.35h-54.42c-3.88,0-9.06-2.15-11.81-4.89l-15.56-15.56c-2.11-2.11-6.43-3.9-9.42-3.9H76.04v-3.38h100.53
						c3.88,0,9.06,2.15,11.81,4.89l15.56,15.56c2.11,2.11,6.43,3.9,9.42,3.9h54.42V153.35z"/>
				</g>
				<g>
					<g>
						<path d="M267.4,138.77c7.12,0,12.89,5.77,12.89,12.89c0,7.12-5.77,12.89-12.89,12.89c-7.12,0-12.89-5.77-12.89-12.89
							C254.51,144.54,260.28,138.77,267.4,138.77z"/>
					</g>
				</g>
				<g>
					<g>
						<ellipse transform="matrix(0.9732 -0.2298 0.2298 0.9732 -27.1984 21.0164)" cx="76.65" cy="127.31" rx="12.15" ry="12.15"/>
					</g>
				</g>
			</g>
			<g>
				<g>
					<path d="M319.6,161.93h-3.38v-10.2c0-2.99-1.79-7.3-3.9-9.42l-18.46-18.46c-2.11-2.11-6.43-3.9-9.42-3.9H239.3v-3.38h45.14
						c3.88,0,9.06,2.15,11.81,4.89l18.46,18.46c2.74,2.74,4.89,7.93,4.89,11.81V161.93z"/>
				</g>
				<g>
					<g>
						<ellipse transform="matrix(0.7071 -0.7071 0.7071 0.7071 -13.4162 204.1119)" cx="239.68" cy="118.25" rx="7.6" ry="7.6"/>
					</g>
				</g>
				<g>
					<g>
						<path d="M290.33,175.89c0,10.5,8.51,19.01,19.01,19.01c10.5,0,19.01-8.51,19.01-19.01c0-10.49-8.51-19.01-19.01-19.01
							C298.84,156.88,290.33,165.39,290.33,175.89z"/>
					</g>
				</g>
			</g>
			<g>
				<g>
					<path d="M304.12,63.44h-59.17c-3.88,0-9.06-2.15-11.81-4.89l-13.42-13.42l2.39-2.39l13.42,13.42c2.11,2.11,6.43,3.9,9.42,3.9
						h59.17c2.99,0,7.3-1.79,9.42-3.9l16.18-16.18l2.39,2.39l-16.17,16.18C313.18,61.29,308,63.44,304.12,63.44z"/>
				</g>
				<g>
					<g>
						<path d="M215.81,49.57c-2.97-2.97-2.97-7.78,0-10.74c2.97-2.97,7.78-2.97,10.74,0c2.97,2.97,2.97,7.78,0,10.74
							S218.78,52.54,215.81,49.57z"/>
					</g>
				</g>
				<g>
					<g>
						<path d="M347.16,46.64c6.88-6.88,6.88-18.03,0-24.91c-6.88-6.88-18.03-6.88-24.91,0c-6.88,6.88-6.88,18.03,0,24.91
							C329.13,53.52,340.28,53.52,347.16,46.64z"/>
					</g>
				</g>
			</g>
			<g>
				<g>
					<path d="M212.95,194.29l-26.68-26.68c-2.11-2.11-6.43-3.9-9.42-3.9h-66.82v-3.38h66.82c3.88,0,9.06,2.15,11.81,4.89
						l26.68,26.68L212.95,194.29z"/>
				</g>
				<g>
					<g>
						<path d="M219.25,187.45c2.97,2.97,2.97,7.78,0,10.74c-2.97,2.97-7.78,2.97-10.74,0c-2.97-2.97-2.97-7.78,0-10.74
							S216.28,184.49,219.25,187.45z"/>
					</g>
				</g>
				<g>
					<g>
						<path d="M105.12,149.86c-9.76,0-17.68,7.92-17.68,17.68c0,9.76,7.92,17.68,17.68,17.68c9.76,0,17.68-7.92,17.68-17.68
							C122.8,157.78,114.88,149.86,105.12,149.86z"/>
					</g>
				</g>
			</g>
			<g>
				<g>
					<path d="M195.17,283.27h-3.38v-35.24c0-3.88,2.15-9.06,4.89-11.81l23.18-23.18c2.74-2.74,7.92-4.89,11.8-4.89c0,0,0,0,0.01,0
						l88.21,0.05c0,0,0,0,0,0c2.99,0,7.3-1.78,9.41-3.9l20.84-20.84c2.11-2.11,3.9-6.43,3.9-9.42v-21.4h3.38v21.4
						c0,3.88-2.15,9.06-4.89,11.81l-20.84,20.84c-2.74,2.74-7.92,4.89-11.8,4.89c0,0,0,0-0.01,0l-88.21-0.05c0,0,0,0,0,0
						c-2.99,0-7.3,1.78-9.41,3.9l-23.18,23.18c-2.11,2.11-3.9,6.43-3.9,9.42V283.27z"/>
				</g>
				<g>
					<g>
						<ellipse transform="matrix(0.2298 -0.9732 0.9732 0.2298 125.0467 464.0877)" cx="355.72" cy="153.04" rx="7.6" ry="7.6"/>
					</g>
				</g>
				<g>
					<g>
						
							<ellipse transform="matrix(0.3827 -0.9239 0.9239 0.3827 -141.7126 353.246)" cx="193.48" cy="282.67" rx="12.15" ry="12.15"/>
					</g>
				</g>
			</g>
			<g>
				<g>
					<path d="M135.03,216.23H64.75v-3.38h70.28c2.99,0,7.3-1.79,9.42-3.9l15.66-15.66l2.39,2.39l-15.66,15.66
						C144.1,214.09,138.91,216.23,135.03,216.23z"/>
				</g>
				<g>
					<g>
						<ellipse transform="matrix(0.7071 -0.7071 0.7071 0.7071 -132.6299 108.8922)" cx="65.13" cy="214.54" rx="7.6" ry="7.6"/>
					</g>
				</g>
				<g>
					<g>
						<path d="M169.47,203.51c4.75-4.75,4.75-12.44,0-17.19c-4.75-4.75-12.44-4.75-17.19,0c-4.75,4.75-4.75,12.44,0,17.19
							C157.03,208.25,164.73,208.25,169.47,203.51z"/>
					</g>
				</g>
			</g>
			<g>
				<g>
					<path d="M325.1,310.89l-18.9-18.9c-2.11-2.11-6.43-3.9-9.42-3.9h-25.95c-2.5,0-4.53,2.03-4.53,4.53v13.54h-3.38v-13.54
						c0-4.36,3.55-7.91,7.91-7.91h25.95c3.88,0,9.06,2.15,11.81,4.89l18.9,18.9L325.1,310.89z"/>
				</g>
				<g>
					<g>
						<ellipse transform="matrix(0.2298 -0.9732 0.9732 0.2298 -93.7764 493.0591)" cx="264.61" cy="305.78" rx="7.6" ry="7.6"/>
					</g>
				</g>
				<g>
					<g>
						<path d="M317.27,317.86c4.75,4.75,12.44,4.75,17.19,0c4.75-4.75,4.75-12.44,0-17.19c-4.75-4.75-12.44-4.75-17.19,0
							C312.53,305.42,312.53,313.11,317.27,317.86z"/>
					</g>
				</g>
			</g>
			<g>
				<g>
					<path d="M466.52,152.55l-2.39-2.39l12.69-12.69c2.11-2.11,3.9-6.43,3.9-9.42V112.2c0-4.36,3.55-7.91,7.91-7.91h31.17v3.38
						h-31.17c-2.5,0-4.53,2.03-4.53,4.53v15.85c0,3.88-2.15,9.06-4.89,11.81L466.52,152.55z"/>
				</g>
				<g>
					<g>
						<path d="M474.35,159.52c-4.75,4.75-12.44,4.75-17.19,0c-4.75-4.75-4.75-12.44,0-17.19c4.75-4.75,12.44-4.75,17.19,0
							C479.1,147.08,479.1,154.77,474.35,159.52z"/>
					</g>
				</g>
				<g>
					<g>
						<ellipse transform="matrix(0.3827 -0.9239 0.9239 0.3827 222.7303 545.3083)" cx="519.42" cy="105.98" rx="7.6" ry="7.6"/>
					</g>
				</g>
			</g>
			<g>
				<g>
					<path d="M558.04,301.99h-3.38v-25.44c0-2.99-1.79-7.3-3.9-9.42l-40.78-40.78c-2.11-2.11-6.43-3.9-9.42-3.9h-55.38
						c-2.99,0-7.3,1.79-9.42,3.9l-30.93,30.93c-2.11,2.11-3.9,6.43-3.9,9.42v20.9h-3.38v-20.9c0-3.88,2.15-9.06,4.89-11.81
						l30.93-30.93c2.74-2.74,7.93-4.89,11.81-4.89h55.38c3.88,0,9.06,2.15,11.81,4.89l40.78,40.78c2.74,2.74,4.89,7.93,4.89,11.81
						V301.99z"/>
				</g>
				<g>
					<g>
						<ellipse transform="matrix(0.2298 -0.9732 0.9732 0.2298 27.9789 609.8017)" cx="399.25" cy="287.22" rx="7.6" ry="7.6"/>
					</g>
				</g>
				<g>
					<g>
						<path d="M544.2,301.38c0,6.71,5.44,12.15,12.15,12.15c6.71,0,12.15-5.44,12.15-12.15c0-6.71-5.44-12.15-12.15-12.15
							C549.64,289.22,544.2,294.67,544.2,301.38z"/>
					</g>
				</g>
			</g>
			<g>
				<g>
					<path d="M484.37,321.78h-3.38V306.3c0-2.5-2.03-4.53-4.53-4.53h-21.16c-3.88,0-9.06-2.15-11.81-4.89l-5.75-5.75l2.39-2.39
						l5.75,5.75c2.11,2.11,6.43,3.9,9.42,3.9h21.16c4.36,0,7.91,3.55,7.91,7.91V321.78z"/>
				</g>
				<g>
					<g>
						<path d="M433.84,295.58c-2.97-2.97-2.97-7.78,0-10.74c2.97-2.97,7.78-2.97,10.74,0c2.97,2.97,2.97,7.78,0,10.74
							C441.62,298.54,436.81,298.54,433.84,295.58z"/>
					</g>
				</g>
				<g>
					<g>
						<path d="M470.53,321.17c0,6.71,5.44,12.15,12.15,12.15c6.71,0,12.15-5.44,12.15-12.15c0-6.71-5.44-12.15-12.15-12.15
							C475.97,309.02,470.53,314.46,470.53,321.17z"/>
					</g>
				</g>
			</g>
			<g>
				<g>
					
						<rect x="385.39" y="310.49" transform="matrix(0.7071 -0.7071 0.7071 0.7071 -127.6923 373.561)" width="3.38" height="60.87"/>
				</g>
				<g>
					<g>
						<path d="M352.68,330.97c-7.12-7.12-7.12-18.66,0-25.77c7.12-7.12,18.66-7.12,25.77,0c7.12,7.12,7.12,18.66,0,25.77
							C371.33,338.08,359.79,338.08,352.68,330.97z"/>
					</g>
				</g>
				<g>
					<g>
						<path d="M399.58,370.6c4.75,4.75,12.44,4.75,17.19,0c4.75-4.75,4.75-12.44,0-17.19c-4.75-4.75-12.44-4.75-17.19,0
							C394.84,358.16,394.84,365.86,399.58,370.6z"/>
					</g>
				</g>
			</g>
			<g>
				<g>
					<path d="M446.72,487.46h-8.9c-4.36,0-7.91-3.55-7.91-7.91v-43.47c0-2.99-1.79-7.3-3.9-9.42l-46.92-46.92
						c-2.11-2.11-6.43-3.9-9.42-3.9h-29.09c-3.88,0-9.06-2.15-11.81-4.89l-7.68-7.68c-2.74-2.74-4.89-7.93-4.89-11.81v-11.93h3.38
						v11.93c0,2.99,1.79,7.3,3.9,9.42l7.68,7.68c2.11,2.11,6.43,3.9,9.42,3.9h29.09c3.88,0,9.06,2.15,11.81,4.89l46.92,46.92
						c2.74,2.74,4.89,7.93,4.89,11.81v43.47c0,2.5,2.03,4.53,4.53,4.53h8.9V487.46z"/>
				</g>
				<g>
					<g>
						<ellipse transform="matrix(0.2298 -0.9732 0.9732 0.2298 -85.9705 571.2318)" cx="317.91" cy="339.93" rx="7.6" ry="7.6"/>
					</g>
				</g>
				<g>
					<g>
						<path d="M463.3,505.15c10.7,0,19.38-8.68,19.38-19.38c0-10.7-8.68-19.38-19.38-19.38c-10.7,0-19.38,8.68-19.38,19.38
							C443.92,496.47,452.6,505.15,463.3,505.15z"/>
					</g>
				</g>
			</g>
			<g>
				<g>
					<rect x="456.57" y="395.86" width="3.38" height="47.61"/>
				</g>
				<g>
					<g>
						<ellipse transform="matrix(0.9239 -0.3827 0.3827 0.9239 -116.7523 205.5311)" cx="458.26" cy="396.24" rx="7.6" ry="7.6"/>
					</g>
				</g>
				<g>
					<g>
						<path d="M446.11,442.87c0,6.71,5.44,12.15,12.15,12.15s12.15-5.44,12.15-12.15c0-6.71-5.44-12.15-12.15-12.15
							S446.11,436.16,446.11,442.87z"/>
					</g>
				</g>
			</g>
			<g>
				<g>
					<path d="M492.26,366.85h-51.85c-4.36,0-7.91-3.55-7.91-7.91v-24.76h3.38v24.76c0,2.5,2.03,4.53,4.53,4.53h51.85
						c2.99,0,7.3-1.79,9.42-3.9l11.44-11.44c2.11-2.11,3.9-6.43,3.9-9.42V307.3h3.38v31.41c0,3.88-2.15,9.06-4.89,11.81
						l-11.44,11.44C501.33,364.7,496.14,366.85,492.26,366.85z"/>
				</g>
				<g>
					<g>
						<path d="M511.12,307.68c0-4.19,3.4-7.6,7.6-7.6c4.19,0,7.6,3.4,7.6,7.6c0,4.19-3.4,7.6-7.6,7.6
							C514.52,315.27,511.12,311.87,511.12,307.68z"/>
					</g>
				</g>
				<g>
					<g>
						<path d="M446.34,334.8c0-6.71-5.44-12.15-12.15-12.15s-12.15,5.44-12.15,12.15c0,6.71,5.44,12.15,12.15,12.15
							S446.34,341.51,446.34,334.8z"/>
					</g>
				</g>
			</g>
			<g>
				<g>
					<rect x="91.4" y="88.67" width="46.49" height="3.38"/>
				</g>
				<g>
					<g>
						<path d="M137.51,82.77c4.19,0,7.6,3.4,7.6,7.6c0,4.19-3.4,7.6-7.6,7.6c-4.19,0-7.6-3.4-7.6-7.6
							C129.92,86.17,133.32,82.77,137.51,82.77z"/>
					</g>
				</g>
				<g>
					<g>
						<path d="M92.01,78.21c-6.71,0-12.15,5.44-12.15,12.15c0,6.71,5.44,12.15,12.15,12.15c6.71,0,12.15-5.44,12.15-12.15
							C104.16,83.65,98.72,78.21,92.01,78.21z"/>
					</g>
				</g>
			</g>
			<g>
				<g>
					<path d="M361.52,88.69l-2.39-2.39l17.38-17.38c2.11-2.11,3.9-6.43,3.9-9.42v-3.07c0-4.36,3.55-7.91,7.91-7.91h73.08
						c3.88,0,9.06,2.15,11.81,4.89l17.56,17.56l-2.39,2.39l-17.56-17.56c-2.11-2.11-6.43-3.9-9.42-3.9h-73.08
						c-2.5,0-4.53,2.03-4.53,4.53v3.07c0,3.88-2.15,9.06-4.89,11.81L361.52,88.69z"/>
				</g>
				<g>
					<g>
						<path d="M365.97,92.6c-2.97,2.97-7.78,2.97-10.74,0c-2.97-2.97-2.97-7.78,0-10.74c2.97-2.97,7.78-2.97,10.74,0
							C368.93,84.82,368.93,89.63,365.97,92.6z"/>
					</g>
				</g>
				<g>
					<g>
						<path d="M480.56,80.34c4.75,4.75,12.44,4.75,17.19,0c4.75-4.75,4.75-12.44,0-17.19c-4.75-4.75-12.44-4.75-17.19,0
							C475.81,67.9,475.81,75.6,480.56,80.34z"/>
					</g>
				</g>
			</g>
			<g>
				<g>
					<path d="M129.39,247.27c-2.23-1.95-6.28-3.53-9.02-3.53H87.07v-3.38h33.29c3.56,0,8.4,1.88,11.25,4.37L129.39,247.27z"/>
				</g>
				<g>
					<g>
						<path d="M87.45,249.65c-4.19,0-7.6-3.4-7.6-7.6c0-4.19,3.4-7.6,7.6-7.6c4.19,0,7.6,3.4,7.6,7.6
							C95.05,246.24,91.64,249.65,87.45,249.65z"/>
					</g>
				</g>
				<g>
					<g>
						<path d="M129.4,259.69c4.78,4.71,12.47,4.66,17.19-0.12c4.71-4.78,4.66-12.47-0.12-17.19c-4.78-4.71-12.47-4.66-17.19,0.12
							C124.57,247.28,124.63,254.98,129.4,259.69z"/>
					</g>
				</g>
			</g>
			<g>
				<g>
					<path d="M29.34,228h-3.38v-50.02c0-3.88,2.15-9.06,4.89-11.81l14.98-14.98l2.39,2.39l-14.98,14.98
						c-2.11,2.11-3.9,6.43-3.9,9.42V228z"/>
				</g>
				<g>
					<g>
						<path d="M41.39,147.28c2.97-2.97,7.78-2.97,10.74,0s2.97,7.78,0,10.74c-2.97,2.97-7.78,2.97-10.74,0
							C38.43,155.05,38.43,150.24,41.39,147.28z"/>
					</g>
				</g>
				<g>
					<g>
						<path d="M15.5,227.39c0,6.71,5.44,12.15,12.15,12.15c6.71,0,12.15-5.44,12.15-12.15c0-6.71-5.44-12.15-12.15-12.15
							C20.94,215.24,15.5,220.68,15.5,227.39z"/>
					</g>
				</g>
			</g>
			<g>
				<g>
					<path d="M129.62,296.13H84.35c-3.88,0-9.06-2.15-11.81-4.89l-18.47-18.47c-1.89-1.89-3.57-5.04-4.39-8.22l3.27-0.84
						c0.67,2.59,2.04,5.21,3.51,6.68l18.47,18.47c2.11,2.11,6.43,3.9,9.42,3.9h45.28c2.99,0,7.3-1.79,9.42-3.9l19.81-19.81
						l2.39,2.39l-19.81,19.81C138.69,293.98,133.5,296.13,129.62,296.13z"/>
				</g>
				<g>
					<g>
						<path d="M154.4,265.13c2.97-2.97,7.78-2.97,10.74,0c2.97,2.97,2.97,7.78,0,10.74s-7.78,2.97-10.74,0
							S151.44,268.1,154.4,265.13z"/>
					</g>
				</g>
				<g>
					<g>
						<path d="M63.63,264.09c-0.35-6.7-6.06-11.86-12.76-11.51c-6.7,0.34-11.86,6.06-11.51,12.76c0.34,6.7,6.06,11.86,12.76,11.51
							C58.82,276.51,63.97,270.79,63.63,264.09z"/>
					</g>
				</g>
			</g>
			<g>
				<g>
					<path d="M286.31,350.48h-57.06c-3.88,0-9.06-2.15-11.81-4.89l-21.43-21.43l2.39-2.39l21.43,21.43c2.11,2.11,6.43,3.9,9.42,3.9
						h57.06V350.48z"/>
				</g>
				<g>
					<g>
						<path d="M192.11,328.6c-2.97-2.97-2.97-7.78,0-10.74c2.97-2.97,7.78-2.97,10.74,0c2.97,2.97,2.97,7.78,0,10.74
							C199.89,331.57,195.08,331.57,192.11,328.6z"/>
					</g>
				</g>
				<g>
					<g>
						<path d="M278.6,360.94c6.71,0,12.15-5.44,12.15-12.15c0-6.71-5.44-12.15-12.15-12.15c-6.71,0-12.15,5.44-12.15,12.15
							C266.45,355.5,271.89,360.94,278.6,360.94z"/>
					</g>
				</g>
			</g>
			<g>
				<g>
					<rect x="532.23" y="201.55" transform="matrix(0.7071 -0.7071 0.7071 0.7071 18.6729 451.5571)" width="44.44" height="3.38"/>
				</g>
				<g>
					<g>
						<path d="M544.37,224.05c-2.97,2.97-7.78,2.97-10.74,0c-2.97-2.97-2.97-7.78,0-10.74c2.97-2.97,7.78-2.97,10.74,0
							C547.34,216.28,547.34,221.09,544.37,224.05z"/>
					</g>
				</g>
				<g>
					<g>
						<path d="M578.32,196.55c4.75-4.75,4.75-12.44,0-17.19s-12.44-4.75-17.19,0c-4.75,4.75-4.75,12.44,0,17.19
							S573.58,201.29,578.32,196.55z"/>
					</g>
				</g>
			</g>
		</g>
		<g>
			<g>
				<g>
					<path d="M349.17,235.64l-2.39-2.39l36.91-36.91c2.11-2.11,3.9-6.43,3.9-9.42v-74.96h3.38v74.96c0,3.88-2.15,9.06-4.89,11.81
						L349.17,235.64z"/>
				</g>
				<g>
					<g>
						<path d="M353.62,239.54c-2.97,2.97-7.78,2.97-10.74,0s-2.97-7.78,0-10.74c2.97-2.97,7.78-2.97,10.74,0
							C356.58,231.77,356.58,236.58,353.62,239.54z"/>
					</g>
				</g>
				<g>
					<g>
						<path d="M406.31,112.57c0-9.4-7.63-17.03-17.03-17.03c-9.4,0-17.03,7.63-17.03,17.03c0,9.4,7.63,17.03,17.03,17.03
							C398.69,129.6,406.31,121.97,406.31,112.57z"/>
					</g>
				</g>
			</g>
			<g>
				<g>
					<path d="M411.42,206.12l-2.39-2.39l16.44-16.43c2.74-2.74,7.93-4.89,11.81-4.89h76.45c2.99,0,7.3-1.79,9.42-3.9l12-12
						c2.11-2.11,3.9-6.43,3.9-9.42v-19.46h3.38v19.46c0,3.88-2.15,9.06-4.89,11.81l-12,12c-2.74,2.74-7.93,4.89-11.81,4.89h-76.45
						c-2.99,0-7.3,1.79-9.42,3.9L411.42,206.12z"/>
				</g>
				<g>
					<g>
						<path d="M418.03,223.05c-6.21,6.21-16.27,6.21-22.48,0c-6.21-6.21-6.21-16.27,0-22.48c6.21-6.21,16.27-6.21,22.48,0
							C424.24,206.78,424.24,216.84,418.03,223.05z"/>
					</g>
				</g>
				<g>
					<g>
						<path d="M558.14,130.99c0-9.61-7.79-17.41-17.41-17.41c-9.61,0-17.41,7.79-17.41,17.41c0,9.61,7.79,17.41,17.41,17.41
							C550.34,148.39,558.14,140.6,558.14,130.99z"/>
					</g>
				</g>
			</g>
			<g>
				<g>
					<path d="M357.98,269.74h-21.93v-3.38h21.93c2.99,0,7.3-1.79,9.42-3.9l11.59-11.59l2.39,2.39l-11.59,11.59
						C367.04,267.59,361.85,269.74,357.98,269.74z"/>
				</g>
				<g>
					<g>
						<path d="M374.54,246.96c2.97-2.97,7.78-2.97,10.74,0c2.97,2.97,2.97,7.78,0,10.74c-2.97,2.97-7.78,2.97-10.74,0
							C371.57,254.73,371.57,249.92,374.54,246.96z"/>
					</g>
				</g>
				<g>
					<g>
						<ellipse transform="matrix(0.9732 -0.2298 0.2298 0.9732 -52.5791 84.5173)" cx="336.65" cy="268.05" rx="12.15" ry="12.15"/>
					</g>
				</g>
			</g>
			<g>
				<g>
					<path d="M352.78,118.82l-21.24-21.24c-2.11-2.11-6.43-3.9-9.42-3.9H207.71c-3.88,0-9.06-2.15-11.81-4.89l-22.96-22.96
						c-2.08-2.08-3.88-5.64-4.59-9.06l3.31-0.68c0.57,2.74,2.07,5.76,3.67,7.36L198.3,86.4c2.11,2.11,6.43,3.9,9.42,3.9h114.41
						c3.88,0,9.06,2.15,11.81,4.89l21.24,21.24L352.78,118.82z"/>
				</g>
				<g>
					<g>
						<path d="M359.08,111.98c2.97,2.97,2.97,7.78,0,10.74c-2.97,2.97-7.78,2.97-10.74,0c-2.97-2.97-2.97-7.78,0-10.74
							C351.3,109.02,356.11,109.02,359.08,111.98z"/>
					</g>
				</g>
				<g>
					<g>
						<path d="M188.13,56.41c-0.34-9.92-8.66-17.7-18.58-17.36c-9.92,0.34-17.7,8.66-17.36,18.58c0.34,9.92,8.66,17.7,18.58,17.36
							C180.7,74.66,188.47,66.34,188.13,56.41z"/>
					</g>
				</g>
			</g>
			<g>
				<g>
					<path d="M418.13,149.81l-2.39-2.39l12.86-12.86c2.11-2.11,3.9-6.43,3.9-9.42V82.77h3.38v42.37c0,3.88-2.15,9.06-4.89,11.81
						L418.13,149.81z"/>
				</g>
				<g>
					<g>
						<path d="M422.58,153.72c-2.97,2.97-7.78,2.97-10.74,0c-2.97-2.97-2.97-7.78,0-10.74c2.97-2.97,7.78-2.97,10.74,0
							C425.54,145.94,425.54,150.75,422.58,153.72z"/>
					</g>
				</g>
				<g>
					<g>
						<path d="M446.34,83.38c0-6.71-5.44-12.15-12.15-12.15s-12.15,5.44-12.15,12.15c0,6.71,5.44,12.15,12.15,12.15
							S446.34,90.09,446.34,83.38z"/>
					</g>
				</g>
			</g>
			<g>
				<g>
					<path d="M511.58,279.43l-19.57-19.57c-2.11-2.11-6.43-3.9-9.42-3.9h-42.76v-3.38h42.76c3.88,0,9.06,2.15,11.81,4.89
						l19.57,19.57L511.58,279.43z"/>
				</g>
				<g>
					<g>
						<ellipse transform="matrix(0.7071 -0.7071 0.7071 0.7071 -50.8546 385.7521)" cx="440.22" cy="254.26" rx="7.6" ry="7.6"/>
					</g>
				</g>
				<g>
					<g>
						<path d="M503.76,286.4c4.75,4.75,12.44,4.75,17.19,0c4.75-4.75,4.75-12.44,0-17.19c-4.75-4.75-12.44-4.75-17.19,0
							C499.01,273.96,499.01,281.65,503.76,286.4z"/>
					</g>
				</g>
			</g>
			<g>
				<g>
					<path d="M231.23,301.99h-3.38v-19.08c0-3.88,2.15-9.06,4.89-11.81l24.3-24.3c2.74-2.74,7.93-4.89,11.81-4.89h38.69v3.38h-38.69
						c-2.99,0-7.3,1.79-9.42,3.9l-24.3,24.3c-2.11,2.11-3.9,6.43-3.9,9.42V301.99z"/>
				</g>
				<g>
					<g>
						<ellipse transform="matrix(0.9239 -0.3827 0.3827 0.9239 -69.8423 136.0837)" cx="307.15" cy="243.6" rx="7.6" ry="7.6"/>
					</g>
				</g>
				<g>
					<g>
						<path d="M217.38,301.38c0,6.71,5.44,12.15,12.15,12.15c6.71,0,12.15-5.44,12.15-12.15c0-6.71-5.44-12.15-12.15-12.15
							C222.82,289.22,217.38,294.67,217.38,301.38z"/>
					</g>
				</g>
			</g>
			<g>
				<g>
					<path d="M267.78,153.35h-54.42c-3.88,0-9.06-2.15-11.81-4.89l-15.56-15.56c-2.11-2.11-6.43-3.9-9.42-3.9H76.04v-3.38h100.53
						c3.88,0,9.06,2.15,11.81,4.89l15.56,15.56c2.11,2.11,6.43,3.9,9.42,3.9h54.42V153.35z"/>
				</g>
				<g>
					<g>
						<path d="M267.4,138.77c7.12,0,12.89,5.77,12.89,12.89c0,7.12-5.77,12.89-12.89,12.89c-7.12,0-12.89-5.77-12.89-12.89
							C254.51,144.54,260.28,138.77,267.4,138.77z"/>
					</g>
				</g>
				<g>
					<g>
						<ellipse transform="matrix(0.9732 -0.2298 0.2298 0.9732 -27.1984 21.0164)" cx="76.65" cy="127.31" rx="12.15" ry="12.15"/>
					</g>
				</g>
			</g>
			<g>
				<g>
					<path d="M319.6,161.93h-3.38v-10.2c0-2.99-1.79-7.3-3.9-9.42l-18.46-18.46c-2.11-2.11-6.43-3.9-9.42-3.9H239.3v-3.38h45.14
						c3.88,0,9.06,2.15,11.81,4.89l18.46,18.46c2.74,2.74,4.89,7.93,4.89,11.81V161.93z"/>
				</g>
				<g>
					<g>
						<ellipse transform="matrix(0.7071 -0.7071 0.7071 0.7071 -13.4162 204.1119)" cx="239.68" cy="118.25" rx="7.6" ry="7.6"/>
					</g>
				</g>
				<g>
					<g>
						<path d="M290.33,175.89c0,10.5,8.51,19.01,19.01,19.01c10.5,0,19.01-8.51,19.01-19.01c0-10.49-8.51-19.01-19.01-19.01
							C298.84,156.88,290.33,165.39,290.33,175.89z"/>
					</g>
				</g>
			</g>
			<g>
				<g>
					<path d="M304.12,63.44h-59.17c-3.88,0-9.06-2.15-11.81-4.89l-13.42-13.42l2.39-2.39l13.42,13.42c2.11,2.11,6.43,3.9,9.42,3.9
						h59.17c2.99,0,7.3-1.79,9.42-3.9l16.18-16.18l2.39,2.39l-16.17,16.18C313.18,61.29,308,63.44,304.12,63.44z"/>
				</g>
				<g>
					<g>
						<path d="M215.81,49.57c-2.97-2.97-2.97-7.78,0-10.74c2.97-2.97,7.78-2.97,10.74,0c2.97,2.97,2.97,7.78,0,10.74
							S218.78,52.54,215.81,49.57z"/>
					</g>
				</g>
				<g>
					<g>
						<path d="M347.16,46.64c6.88-6.88,6.88-18.03,0-24.91c-6.88-6.88-18.03-6.88-24.91,0c-6.88,6.88-6.88,18.03,0,24.91
							C329.13,53.52,340.28,53.52,347.16,46.64z"/>
					</g>
				</g>
			</g>
			<g>
				<g>
					<path d="M212.95,194.29l-26.68-26.68c-2.11-2.11-6.43-3.9-9.42-3.9h-66.82v-3.38h66.82c3.88,0,9.06,2.15,11.81,4.89
						l26.68,26.68L212.95,194.29z"/>
				</g>
				<g>
					<g>
						<path d="M219.25,187.45c2.97,2.97,2.97,7.78,0,10.74c-2.97,2.97-7.78,2.97-10.74,0c-2.97-2.97-2.97-7.78,0-10.74
							S216.28,184.49,219.25,187.45z"/>
					</g>
				</g>
				<g>
					<g>
						<path d="M105.12,149.86c-9.76,0-17.68,7.92-17.68,17.68c0,9.76,7.92,17.68,17.68,17.68c9.76,0,17.68-7.92,17.68-17.68
							C122.8,157.78,114.88,149.86,105.12,149.86z"/>
					</g>
				</g>
			</g>
			<g>
				<g>
					<path d="M195.17,283.27h-3.38v-35.24c0-3.88,2.15-9.06,4.89-11.81l23.18-23.18c2.74-2.74,7.92-4.89,11.8-4.89c0,0,0,0,0.01,0
						l88.21,0.05c0,0,0,0,0,0c2.99,0,7.3-1.78,9.41-3.9l20.84-20.84c2.11-2.11,3.9-6.43,3.9-9.42v-21.4h3.38v21.4
						c0,3.88-2.15,9.06-4.89,11.81l-20.84,20.84c-2.74,2.74-7.92,4.89-11.8,4.89c0,0,0,0-0.01,0l-88.21-0.05c0,0,0,0,0,0
						c-2.99,0-7.3,1.78-9.41,3.9l-23.18,23.18c-2.11,2.11-3.9,6.43-3.9,9.42V283.27z"/>
				</g>
				<g>
					<g>
						<ellipse transform="matrix(0.2298 -0.9732 0.9732 0.2298 125.0467 464.0877)" cx="355.72" cy="153.04" rx="7.6" ry="7.6"/>
					</g>
				</g>
				<g>
					<g>
						
							<ellipse transform="matrix(0.3827 -0.9239 0.9239 0.3827 -141.7126 353.246)" cx="193.48" cy="282.67" rx="12.15" ry="12.15"/>
					</g>
				</g>
			</g>
			<g>
				<g>
					<path d="M135.03,216.23H64.75v-3.38h70.28c2.99,0,7.3-1.79,9.42-3.9l15.66-15.66l2.39,2.39l-15.66,15.66
						C144.1,214.09,138.91,216.23,135.03,216.23z"/>
				</g>
				<g>
					<g>
						<ellipse transform="matrix(0.7071 -0.7071 0.7071 0.7071 -132.6299 108.8922)" cx="65.13" cy="214.54" rx="7.6" ry="7.6"/>
					</g>
				</g>
				<g>
					<g>
						<path d="M169.47,203.51c4.75-4.75,4.75-12.44,0-17.19c-4.75-4.75-12.44-4.75-17.19,0c-4.75,4.75-4.75,12.44,0,17.19
							C157.03,208.25,164.73,208.25,169.47,203.51z"/>
					</g>
				</g>
			</g>
			<g>
				<g>
					<path d="M325.1,310.89l-18.9-18.9c-2.11-2.11-6.43-3.9-9.42-3.9h-25.95c-2.5,0-4.53,2.03-4.53,4.53v13.54h-3.38v-13.54
						c0-4.36,3.55-7.91,7.91-7.91h25.95c3.88,0,9.06,2.15,11.81,4.89l18.9,18.9L325.1,310.89z"/>
				</g>
				<g>
					<g>
						<ellipse transform="matrix(0.2298 -0.9732 0.9732 0.2298 -93.7764 493.0591)" cx="264.61" cy="305.78" rx="7.6" ry="7.6"/>
					</g>
				</g>
				<g>
					<g>
						<path d="M317.27,317.86c4.75,4.75,12.44,4.75,17.19,0c4.75-4.75,4.75-12.44,0-17.19c-4.75-4.75-12.44-4.75-17.19,0
							C312.53,305.42,312.53,313.11,317.27,317.86z"/>
					</g>
				</g>
			</g>
			<g>
				<g>
					<path d="M466.52,152.55l-2.39-2.39l12.69-12.69c2.11-2.11,3.9-6.43,3.9-9.42V112.2c0-4.36,3.55-7.91,7.91-7.91h31.17v3.38
						h-31.17c-2.5,0-4.53,2.03-4.53,4.53v15.85c0,3.88-2.15,9.06-4.89,11.81L466.52,152.55z"/>
				</g>
				<g>
					<g>
						<path d="M474.35,159.52c-4.75,4.75-12.44,4.75-17.19,0c-4.75-4.75-4.75-12.44,0-17.19c4.75-4.75,12.44-4.75,17.19,0
							C479.1,147.08,479.1,154.77,474.35,159.52z"/>
					</g>
				</g>
				<g>
					<g>
						<ellipse transform="matrix(0.3827 -0.9239 0.9239 0.3827 222.7303 545.3083)" cx="519.42" cy="105.98" rx="7.6" ry="7.6"/>
					</g>
				</g>
			</g>
			<g>
				<g>
					<path d="M558.04,301.99h-3.38v-25.44c0-2.99-1.79-7.3-3.9-9.42l-40.78-40.78c-2.11-2.11-6.43-3.9-9.42-3.9h-55.38
						c-2.99,0-7.3,1.79-9.42,3.9l-30.93,30.93c-2.11,2.11-3.9,6.43-3.9,9.42v20.9h-3.38v-20.9c0-3.88,2.15-9.06,4.89-11.81
						l30.93-30.93c2.74-2.74,7.93-4.89,11.81-4.89h55.38c3.88,0,9.06,2.15,11.81,4.89l40.78,40.78c2.74,2.74,4.89,7.93,4.89,11.81
						V301.99z"/>
				</g>
				<g>
					<g>
						<ellipse transform="matrix(0.2298 -0.9732 0.9732 0.2298 27.9789 609.8017)" cx="399.25" cy="287.22" rx="7.6" ry="7.6"/>
					</g>
				</g>
				<g>
					<g>
						<path d="M544.2,301.38c0,6.71,5.44,12.15,12.15,12.15c6.71,0,12.15-5.44,12.15-12.15c0-6.71-5.44-12.15-12.15-12.15
							C549.64,289.22,544.2,294.67,544.2,301.38z"/>
					</g>
				</g>
			</g>
			<g>
				<g>
					<path d="M484.37,321.78h-3.38V306.3c0-2.5-2.03-4.53-4.53-4.53h-21.16c-3.88,0-9.06-2.15-11.81-4.89l-5.75-5.75l2.39-2.39
						l5.75,5.75c2.11,2.11,6.43,3.9,9.42,3.9h21.16c4.36,0,7.91,3.55,7.91,7.91V321.78z"/>
				</g>
				<g>
					<g>
						<path d="M433.84,295.58c-2.97-2.97-2.97-7.78,0-10.74c2.97-2.97,7.78-2.97,10.74,0c2.97,2.97,2.97,7.78,0,10.74
							C441.62,298.54,436.81,298.54,433.84,295.58z"/>
					</g>
				</g>
				<g>
					<g>
						<path d="M470.53,321.17c0,6.71,5.44,12.15,12.15,12.15c6.71,0,12.15-5.44,12.15-12.15c0-6.71-5.44-12.15-12.15-12.15
							C475.97,309.02,470.53,314.46,470.53,321.17z"/>
					</g>
				</g>
			</g>
			<g>
				<g>
					
						<rect x="385.39" y="310.49" transform="matrix(0.7071 -0.7071 0.7071 0.7071 -127.6923 373.561)" width="3.38" height="60.87"/>
				</g>
				<g>
					<g>
						<path d="M352.68,330.97c-7.12-7.12-7.12-18.66,0-25.77c7.12-7.12,18.66-7.12,25.77,0c7.12,7.12,7.12,18.66,0,25.77
							C371.33,338.08,359.79,338.08,352.68,330.97z"/>
					</g>
				</g>
				<g>
					<g>
						<path d="M399.58,370.6c4.75,4.75,12.44,4.75,17.19,0c4.75-4.75,4.75-12.44,0-17.19c-4.75-4.75-12.44-4.75-17.19,0
							C394.84,358.16,394.84,365.86,399.58,370.6z"/>
					</g>
				</g>
			</g>
			<g>
				<g>
					<path d="M446.72,487.46h-8.9c-4.36,0-7.91-3.55-7.91-7.91v-43.47c0-2.99-1.79-7.3-3.9-9.42l-46.92-46.92
						c-2.11-2.11-6.43-3.9-9.42-3.9h-29.09c-3.88,0-9.06-2.15-11.81-4.89l-7.68-7.68c-2.74-2.74-4.89-7.93-4.89-11.81v-11.93h3.38
						v11.93c0,2.99,1.79,7.3,3.9,9.42l7.68,7.68c2.11,2.11,6.43,3.9,9.42,3.9h29.09c3.88,0,9.06,2.15,11.81,4.89l46.92,46.92
						c2.74,2.74,4.89,7.93,4.89,11.81v43.47c0,2.5,2.03,4.53,4.53,4.53h8.9V487.46z"/>
				</g>
				<g>
					<g>
						<ellipse transform="matrix(0.2298 -0.9732 0.9732 0.2298 -85.9705 571.2318)" cx="317.91" cy="339.93" rx="7.6" ry="7.6"/>
					</g>
				</g>
				<g>
					<g>
						<path d="M463.3,505.15c10.7,0,19.38-8.68,19.38-19.38c0-10.7-8.68-19.38-19.38-19.38c-10.7,0-19.38,8.68-19.38,19.38
							C443.92,496.47,452.6,505.15,463.3,505.15z"/>
					</g>
				</g>
			</g>
			<g>
				<g>
					<rect x="456.57" y="395.86" width="3.38" height="47.61"/>
				</g>
				<g>
					<g>
						<ellipse transform="matrix(0.9239 -0.3827 0.3827 0.9239 -116.7523 205.5311)" cx="458.26" cy="396.24" rx="7.6" ry="7.6"/>
					</g>
				</g>
				<g>
					<g>
						<path d="M446.11,442.87c0,6.71,5.44,12.15,12.15,12.15s12.15-5.44,12.15-12.15c0-6.71-5.44-12.15-12.15-12.15
							S446.11,436.16,446.11,442.87z"/>
					</g>
				</g>
			</g>
			<g>
				<g>
					<path d="M492.26,366.85h-51.85c-4.36,0-7.91-3.55-7.91-7.91v-24.76h3.38v24.76c0,2.5,2.03,4.53,4.53,4.53h51.85
						c2.99,0,7.3-1.79,9.42-3.9l11.44-11.44c2.11-2.11,3.9-6.43,3.9-9.42V307.3h3.38v31.41c0,3.88-2.15,9.06-4.89,11.81
						l-11.44,11.44C501.33,364.7,496.14,366.85,492.26,366.85z"/>
				</g>
				<g>
					<g>
						<path d="M511.12,307.68c0-4.19,3.4-7.6,7.6-7.6c4.19,0,7.6,3.4,7.6,7.6c0,4.19-3.4,7.6-7.6,7.6
							C514.52,315.27,511.12,311.87,511.12,307.68z"/>
					</g>
				</g>
				<g>
					<g>
						<path d="M446.34,334.8c0-6.71-5.44-12.15-12.15-12.15s-12.15,5.44-12.15,12.15c0,6.71,5.44,12.15,12.15,12.15
							S446.34,341.51,446.34,334.8z"/>
					</g>
				</g>
			</g>
			<g>
				<g>
					<rect x="91.4" y="88.67" width="46.49" height="3.38"/>
				</g>
				<g>
					<g>
						<path d="M137.51,82.77c4.19,0,7.6,3.4,7.6,7.6c0,4.19-3.4,7.6-7.6,7.6c-4.19,0-7.6-3.4-7.6-7.6
							C129.92,86.17,133.32,82.77,137.51,82.77z"/>
					</g>
				</g>
				<g>
					<g>
						<path d="M92.01,78.21c-6.71,0-12.15,5.44-12.15,12.15c0,6.71,5.44,12.15,12.15,12.15c6.71,0,12.15-5.44,12.15-12.15
							C104.16,83.65,98.72,78.21,92.01,78.21z"/>
					</g>
				</g>
			</g>
			<g>
				<g>
					<path d="M361.52,88.69l-2.39-2.39l17.38-17.38c2.11-2.11,3.9-6.43,3.9-9.42v-3.07c0-4.36,3.55-7.91,7.91-7.91h73.08
						c3.88,0,9.06,2.15,11.81,4.89l17.56,17.56l-2.39,2.39l-17.56-17.56c-2.11-2.11-6.43-3.9-9.42-3.9h-73.08
						c-2.5,0-4.53,2.03-4.53,4.53v3.07c0,3.88-2.15,9.06-4.89,11.81L361.52,88.69z"/>
				</g>
				<g>
					<g>
						<path d="M365.97,92.6c-2.97,2.97-7.78,2.97-10.74,0c-2.97-2.97-2.97-7.78,0-10.74c2.97-2.97,7.78-2.97,10.74,0
							C368.93,84.82,368.93,89.63,365.97,92.6z"/>
					</g>
				</g>
				<g>
					<g>
						<path d="M480.56,80.34c4.75,4.75,12.44,4.75,17.19,0c4.75-4.75,4.75-12.44,0-17.19c-4.75-4.75-12.44-4.75-17.19,0
							C475.81,67.9,475.81,75.6,480.56,80.34z"/>
					</g>
				</g>
			</g>
			<g>
				<g>
					<path d="M129.39,247.27c-2.23-1.95-6.28-3.53-9.02-3.53H87.07v-3.38h33.29c3.56,0,8.4,1.88,11.25,4.37L129.39,247.27z"/>
				</g>
				<g>
					<g>
						<path d="M87.45,249.65c-4.19,0-7.6-3.4-7.6-7.6c0-4.19,3.4-7.6,7.6-7.6c4.19,0,7.6,3.4,7.6,7.6
							C95.05,246.24,91.64,249.65,87.45,249.65z"/>
					</g>
				</g>
				<g>
					<g>
						<path d="M129.4,259.69c4.78,4.71,12.47,4.66,17.19-0.12c4.71-4.78,4.66-12.47-0.12-17.19c-4.78-4.71-12.47-4.66-17.19,0.12
							C124.57,247.28,124.63,254.98,129.4,259.69z"/>
					</g>
				</g>
			</g>
			<g>
				<g>
					<path d="M29.34,228h-3.38v-50.02c0-3.88,2.15-9.06,4.89-11.81l14.98-14.98l2.39,2.39l-14.98,14.98
						c-2.11,2.11-3.9,6.43-3.9,9.42V228z"/>
				</g>
				<g>
					<g>
						<path d="M41.39,147.28c2.97-2.97,7.78-2.97,10.74,0s2.97,7.78,0,10.74c-2.97,2.97-7.78,2.97-10.74,0
							C38.43,155.05,38.43,150.24,41.39,147.28z"/>
					</g>
				</g>
				<g>
					<g>
						<path d="M15.5,227.39c0,6.71,5.44,12.15,12.15,12.15c6.71,0,12.15-5.44,12.15-12.15c0-6.71-5.44-12.15-12.15-12.15
							C20.94,215.24,15.5,220.68,15.5,227.39z"/>
					</g>
				</g>
			</g>
			<g>
				<g>
					<path d="M129.62,296.13H84.35c-3.88,0-9.06-2.15-11.81-4.89l-18.47-18.47c-1.89-1.89-3.57-5.04-4.39-8.22l3.27-0.84
						c0.67,2.59,2.04,5.21,3.51,6.68l18.47,18.47c2.11,2.11,6.43,3.9,9.42,3.9h45.28c2.99,0,7.3-1.79,9.42-3.9l19.81-19.81
						l2.39,2.39l-19.81,19.81C138.69,293.98,133.5,296.13,129.62,296.13z"/>
				</g>
				<g>
					<g>
						<path d="M154.4,265.13c2.97-2.97,7.78-2.97,10.74,0c2.97,2.97,2.97,7.78,0,10.74s-7.78,2.97-10.74,0
							S151.44,268.1,154.4,265.13z"/>
					</g>
				</g>
				<g>
					<g>
						<path d="M63.63,264.09c-0.35-6.7-6.06-11.86-12.76-11.51c-6.7,0.34-11.86,6.06-11.51,12.76c0.34,6.7,6.06,11.86,12.76,11.51
							C58.82,276.51,63.97,270.79,63.63,264.09z"/>
					</g>
				</g>
			</g>
			<g>
				<g>
					<path d="M286.31,350.48h-57.06c-3.88,0-9.06-2.15-11.81-4.89l-21.43-21.43l2.39-2.39l21.43,21.43c2.11,2.11,6.43,3.9,9.42,3.9
						h57.06V350.48z"/>
				</g>
				<g>
					<g>
						<path d="M192.11,328.6c-2.97-2.97-2.97-7.78,0-10.74c2.97-2.97,7.78-2.97,10.74,0c2.97,2.97,2.97,7.78,0,10.74
							C199.89,331.57,195.08,331.57,192.11,328.6z"/>
					</g>
				</g>
				<g>
					<g>
						<path d="M278.6,360.94c6.71,0,12.15-5.44,12.15-12.15c0-6.71-5.44-12.15-12.15-12.15c-6.71,0-12.15,5.44-12.15,12.15
							C266.45,355.5,271.89,360.94,278.6,360.94z"/>
					</g>
				</g>
			</g>
			<g>
				<g>
					<rect x="532.23" y="201.55" transform="matrix(0.7071 -0.7071 0.7071 0.7071 18.6729 451.5571)" width="44.44" height="3.38"/>
				</g>
				<g>
					<g>
						<path d="M544.37,224.05c-2.97,2.97-7.78,2.97-10.74,0c-2.97-2.97-2.97-7.78,0-10.74c2.97-2.97,7.78-2.97,10.74,0
							C547.34,216.28,547.34,221.09,544.37,224.05z"/>
					</g>
				</g>
				<g>
					<g>
						<path d="M578.32,196.55c4.75-4.75,4.75-12.44,0-17.19s-12.44-4.75-17.19,0c-4.75,4.75-4.75,12.44,0,17.19
							S573.58,201.29,578.32,196.55z"/>
					</g>
				</g>
			</g>
		</g>
	</g>
</g>
</svg>
